<?xml version="1.0" encoding="UTF-8"?>
<svg version="1.1" xmlns="http://www.w3.org/2000/svg" width="652" height="600">
<path d="M0 0 C1.02222656 0.20431641 2.04445313 0.40863281 3.09765625 0.61914062 C29.75948536 6.09402731 56.60593439 14.89891525 81 27 C82.33645657 27.63836063 83.67368538 28.2751073 85.01171875 28.91015625 C102.64024027 37.38057897 119.32180871 47.31599537 135 59 C135.59780273 59.44085938 136.19560547 59.88171875 136.81152344 60.3359375 C143.71018122 65.43746594 150.22378695 70.85326877 156.51171875 76.6953125 C158.67854385 78.70226197 160.88173857 80.64223282 163.125 82.5625 C170.35609586 88.88050432 176.76062503 95.69592075 182.75390625 103.1953125 C184.21686491 105.02210262 185.70296955 106.83066949 187.21484375 108.6171875 C215.606671 142.24827988 235.79320143 188.35019308 236.23828125 232.65234375 C236.2480751 233.46137146 236.25786896 234.27039917 236.26795959 235.10394287 C236.7158198 281.7337985 226.07279728 326.7707842 198 365 C197.28328125 365.98742187 196.5665625 366.97484375 195.828125 367.9921875 C193.58964154 371.02571854 191.30956675 374.0202999 189 377 C188.32582031 377.87011719 187.65164063 378.74023438 186.95703125 379.63671875 C172.98443752 397.17455216 156.89241779 412.52706428 139 426 C138.45682129 426.41072754 137.91364258 426.82145508 137.35400391 427.24462891 C66.38388776 480.49902552 -25.04424489 501.66837333 -112.6875 495.0625 C-113.80350586 494.98314209 -114.91951172 494.90378418 -116.06933594 494.82202148 C-120.50994207 494.47942379 -124.820606 494.12559546 -129.15625 493.08203125 C-136.81972201 491.54764139 -141.3073224 493.31565458 -147.69726562 497.38500977 C-151.36590718 499.87859693 -154.97100161 502.45203355 -158.55307007 505.06834412 C-165.34999997 510.02382657 -172.34848888 514.6754973 -179.33477783 519.35806274 C-183.32283991 522.03534182 -187.2996823 524.72917877 -191.27734375 527.421875 C-192.90086306 528.52020572 -194.52439823 529.61851298 -196.14794922 530.71679688 C-199.34772883 532.8818139 -202.54724194 535.04722416 -205.74658203 537.21289062 C-207.31151595 538.27214648 -208.87645733 539.33139131 -210.44140625 540.390625 C-211.21364532 540.91334991 -211.9858844 541.43607483 -212.78152466 541.97463989 C-218.90267804 546.11688274 -225.03081345 550.24871076 -231.16061401 554.37814331 C-235.8192094 557.51950556 -240.46387283 560.68043285 -245.1000061 563.85484314 C-248.14743674 565.93829061 -251.20228078 568.01068213 -254.25866699 570.08096313 C-255.69686662 571.05889295 -257.13176692 572.04169488 -258.56311035 573.02963257 C-260.53237409 574.38807663 -262.51253592 575.72895527 -264.49609375 577.06640625 C-265.06937912 577.46818085 -265.64266449 577.86995544 -266.23332214 578.28390503 C-269.96111892 580.76388794 -272.54738064 581.52164085 -277 581 C-280.78291813 579.28049176 -282.48333036 577.84088272 -284 574 C-284.25325383 567.26525283 -281.96844298 560.40491111 -280.22436523 553.97241211 C-279.94136566 552.90795868 -279.65836609 551.84350525 -279.36679077 550.74679565 C-278.43689464 547.25529827 -277.49781765 543.76634235 -276.55859375 540.27734375 C-275.90926644 537.84655197 -275.26051687 535.41560579 -274.61231995 532.98451233 C-273.08365429 527.25675398 -271.54920086 521.53056683 -270.0118857 515.80512577 C-268.0885416 508.64055886 -266.17428445 501.47356987 -264.25976562 494.30664062 C-260.84709535 481.53581334 -257.42641581 468.76714582 -254 456 C-254.7816452 455.69125443 -255.56329041 455.38250885 -256.36862183 455.06440735 C-276.68091706 446.84796909 -295.1915476 432.84021449 -312 419 C-312.55429687 418.54866699 -313.10859375 418.09733398 -313.6796875 417.63232422 C-327.70790799 406.16166812 -341.01803201 393.44367529 -352 379 C-352.92644299 377.82501566 -353.85357424 376.65057379 -354.78125 375.4765625 C-389.7207841 330.70975035 -406.72587697 274.36260034 -399.875 217.75 C-396.41253804 192.06172836 -388.29209879 167.77581724 -376 145 C-375.38640625 143.845 -374.7728125 142.69 -374.140625 141.5 C-366.55976322 127.71661494 -357.26775553 114.90299067 -347 103 C-346.36578125 102.25492187 -345.7315625 101.50984375 -345.078125 100.7421875 C-334.13397721 88.22853015 -322.27319271 76.03808307 -309 66 C-307.81462248 65.07483558 -306.62976386 64.14900609 -305.4453125 63.22265625 C-253.99854714 23.39876072 -191.17927397 1.5383085 -127 -6 C-125.9992041 -6.11859375 -124.9984082 -6.2371875 -123.96728516 -6.359375 C-82.77022553 -10.99430285 -40.54443399 -8.21846635 0 0 Z " fill="#3B1D1D" transform="translate(407,14)"/>
</svg>
