<svg width="70" height="70" viewBox="0 0 70 70" fill="none" xmlns="http://www.w3.org/2000/svg">
<g opacity="0.76" filter="url(#filter0_bd_2076_11954)">
<rect x="12" y="8" width="46" height="46" rx="23" fill="white"/>
<path d="M33.6464 24.0602L32.357 25.3496C32.263 25.4391 32.1378 25.4886 32.0079 25.4875C31.8768 25.4863 31.7514 25.4338 31.6587 25.3411C31.566 25.2483 31.5134 25.1229 31.5123 24.9918C31.5112 24.8619 31.5607 24.7367 31.6502 24.6427L34.6465 21.6464C34.6465 21.6464 34.6465 21.6464 34.6466 21.6463C34.7403 21.5526 34.8674 21.5 35 21.5C35.1326 21.5 35.2597 21.5526 35.3534 21.6463C35.3535 21.6464 35.3535 21.6464 35.3535 21.6464L38.3498 24.6427C38.4394 24.7368 38.4888 24.8619 38.4877 24.9918C38.4866 25.1229 38.434 25.2483 38.3413 25.3411C38.2486 25.4338 38.1232 25.4863 37.9921 25.4875C37.8622 25.4886 37.737 25.4391 37.643 25.3496L36.3536 24.0602L35.5 23.2067V24.4138V33.9998C35.5 34.1324 35.4473 34.2596 35.3536 34.3533C35.2598 34.4471 35.1326 34.4998 35 34.4998C34.8674 34.4998 34.7402 34.4471 34.6464 34.3533C34.5527 34.2596 34.5 34.1324 34.5 33.9998V24.4138V23.2067L33.6464 24.0602ZM29 29.4998H28.5V29.9998V38.9998V39.4998H29H41H41.5V38.9998V29.9998V29.4998H41H39C38.8674 29.4998 38.7402 29.4471 38.6464 29.3533C38.5527 29.2596 38.5 29.1324 38.5 28.9998C38.5 28.8672 38.5527 28.74 38.6464 28.6462C38.7402 28.5525 38.8674 28.4998 39 28.4998H41C41.3978 28.4998 41.7794 28.6578 42.0607 28.9391C42.342 29.2204 42.5 29.602 42.5 29.9998V38.9998C42.5 39.3976 42.342 39.7791 42.0607 40.0604C41.7794 40.3418 41.3978 40.4998 41 40.4998H29C28.6022 40.4998 28.2206 40.3418 27.9393 40.0604C27.658 39.7791 27.5 39.3976 27.5 38.9998V29.9998C27.5 29.602 27.658 29.2204 27.9393 28.9391C28.2206 28.6578 28.6022 28.4998 29 28.4998H31C31.1326 28.4998 31.2598 28.5525 31.3536 28.6462C31.4473 28.74 31.5 28.8672 31.5 28.9998C31.5 29.1324 31.4473 29.2596 31.3536 29.3533C31.2598 29.4471 31.1326 29.4998 31 29.4998H29Z" fill="#415058" fill-opacity="0.6" stroke="#415058"/>
</g>
<defs>
<filter id="filter0_bd_2076_11954" x="0" y="0" width="70" height="70" filterUnits="userSpaceOnUse" color-interpolation-filters="sRGB">
<feFlood flood-opacity="0" result="BackgroundImageFix"/>
<feGaussianBlur in="BackgroundImageFix" stdDeviation="4"/>
<feComposite in2="SourceAlpha" operator="in" result="effect1_backgroundBlur_2076_11954"/>
<feColorMatrix in="SourceAlpha" type="matrix" values="0 0 0 0 0 0 0 0 0 0 0 0 0 0 0 0 0 0 127 0" result="hardAlpha"/>
<feOffset dy="4"/>
<feGaussianBlur stdDeviation="6"/>
<feComposite in2="hardAlpha" operator="out"/>
<feColorMatrix type="matrix" values="0 0 0 0 0.12549 0 0 0 0 0.12549 0 0 0 0 0.12549 0 0 0 0.12 0"/>
<feBlend mode="normal" in2="effect1_backgroundBlur_2076_11954" result="effect2_dropShadow_2076_11954"/>
<feBlend mode="normal" in="SourceGraphic" in2="effect2_dropShadow_2076_11954" result="shape"/>
</filter>
</defs>
</svg>
