<svg width="24" height="24" viewBox="0 0 24 25" fill="none" xmlns="http://www.w3.org/2000/svg">
<path d="M10.6464 5.06023L9.35704 6.34963C9.26303 6.43914 9.13784 6.48861 9.00794 6.48748C8.87685 6.48634 8.75144 6.43376 8.65873 6.34105C8.56603 6.24835 8.51345 6.12294 8.51231 5.99184C8.51118 5.86194 8.56065 5.73675 8.65016 5.64273L11.6465 2.64639C11.6465 2.64638 11.6465 2.64636 11.6466 2.64634C11.7403 2.55264 11.8674 2.5 12 2.5C12.1326 2.5 12.2597 2.55264 12.3534 2.64634C12.3535 2.64636 12.3535 2.64638 12.3535 2.64639L15.3498 5.64274C15.4394 5.73676 15.4888 5.86194 15.4877 5.99184C15.4866 6.12294 15.434 6.24835 15.3413 6.34105C15.2486 6.43376 15.1232 6.48634 14.9921 6.48748C14.8622 6.48861 14.737 6.43914 14.643 6.34963L13.3536 5.06023L12.5 4.20668V5.41379V14.9998C12.5 15.1324 12.4473 15.2596 12.3536 15.3533C12.2598 15.4471 12.1326 15.4998 12 15.4998C11.8674 15.4998 11.7402 15.4471 11.6464 15.3533C11.5527 15.2596 11.5 15.1324 11.5 14.9998V5.41379V4.20668L10.6464 5.06023ZM6 10.4998H5.5V10.9998V19.9998V20.4998H6H18H18.5V19.9998V10.9998V10.4998H18H16C15.8674 10.4998 15.7402 10.4471 15.6464 10.3533C15.5527 10.2596 15.5 10.1324 15.5 9.99979C15.5 9.86718 15.5527 9.74 15.6464 9.64623C15.7402 9.55246 15.8674 9.49979 16 9.49979H18C18.3978 9.49979 18.7794 9.65782 19.0607 9.93913C19.342 10.2204 19.5 10.602 19.5 10.9998V19.9998C19.5 20.3976 19.342 20.7791 19.0607 21.0604C18.7794 21.3418 18.3978 21.4998 18 21.4998H6C5.60218 21.4998 5.22064 21.3418 4.93934 21.0604C4.65804 20.7791 4.5 20.3976 4.5 19.9998V10.9998C4.5 10.602 4.65804 10.2204 4.93934 9.93913C5.22064 9.65782 5.60218 9.49979 6 9.49979H8C8.13261 9.49979 8.25978 9.55246 8.35355 9.64623C8.44732 9.74 8.5 9.86718 8.5 9.99979C8.5 10.1324 8.44732 10.2596 8.35355 10.3533C8.25978 10.4471 8.13261 10.4998 8 10.4998H6Z" fill="currentColor" fill-opacity="0.6" stroke="currentColor"/>
</svg>
