<svg width="9" height="10" viewBox="0 0 9 10" fill="none" xmlns="http://www.w3.org/2000/svg">
<path d="M8.85313 4.62468C8.94628 4.72456 8.99853 4.85948 8.99853 5.00009C8.99853 5.14071 8.94628 5.27563 8.85313 5.37551L5.5198 8.91718C5.47402 8.96937 5.41882 9.01124 5.35749 9.04027C5.29616 9.06931 5.22995 9.08492 5.16281 9.08618C5.09568 9.08744 5.02899 9.07432 4.96673 9.0476C4.90447 9.02088 4.84792 8.98111 4.80044 8.93066C4.75296 8.88022 4.71553 8.82013 4.69038 8.75398C4.66523 8.68783 4.65288 8.61697 4.65407 8.54564C4.65525 8.47431 4.66995 8.40396 4.69728 8.3388C4.7246 8.27363 4.76401 8.21498 4.81313 8.16634L7.29313 5.53134L0.499797 5.53134C0.367188 5.53134 0.240011 5.47537 0.146243 5.37574C0.0524748 5.27612 -0.000203316 5.14099 -0.00020331 5.00009C-0.000203304 4.8592 0.0524748 4.72407 0.146243 4.62444C0.240011 4.52482 0.367188 4.46884 0.499797 4.46884L7.29313 4.46884L4.81313 1.83384C4.72481 1.73314 4.67673 1.59994 4.67901 1.46231C4.6813 1.32468 4.73377 1.19336 4.82538 1.09603C4.91699 0.998695 5.04058 0.942941 5.17011 0.940512C5.29965 0.938084 5.42501 0.989171 5.5198 1.08301L8.85313 4.62468Z" fill="#5A6A72"/>
</svg>
