<svg width="22" height="20" viewBox="0 0 22 20" fill="none" xmlns="http://www.w3.org/2000/svg">
<rect width="22" height="20" fill="#393939"/>
<g id="Contents type">
<path d="M-1044 -347C-1044 -348.105 -1043.1 -349 -1042 -349H1331C1332.1 -349 1333 -348.105 1333 -347V2321C1333 2322.1 1332.1 2323 1331 2323H-1042C-1043.1 2323 -1044 2322.1 -1044 2321V-347Z" fill="#717171"/>
<path d="M-1042 -348H1331V-350H-1042V-348ZM1332 -347V2321H1334V-347H1332ZM1331 2322H-1042V2324H1331V2322ZM-1043 2321V-347H-1045V2321H-1043ZM-1042 2322C-1042.55 2322 -1043 2321.55 -1043 2321H-1045C-1045 2322.66 -1043.66 2324 -1042 2324V2322ZM1332 2321C1332 2321.55 1331.55 2322 1331 2322V2324C1332.66 2324 1334 2322.66 1334 2321H1332ZM1331 -348C1331.55 -348 1332 -347.552 1332 -347H1334C1334 -348.657 1332.66 -350 1331 -350V-348ZM-1042 -350C-1043.66 -350 -1045 -348.657 -1045 -347H-1043C-1043 -347.552 -1042.55 -348 -1042 -348V-350Z" fill="black" fill-opacity="0.1"/>
<g id="Main_type_&#237;&#154;&#140;&#236;&#155;&#144;" clip-path="url(#clip0_889_24083)">
<rect width="390" height="2257" transform="translate(-353 -74)" fill="#F4F5F5"/>
<g id="App Bar / Regular">
<rect width="390" height="60" transform="translate(-353 -20)" fill="white"/>
<path id="Vector" d="M11 20L9.405 18.5613C3.74 13.4714 0 10.1035 0 5.99455C0 2.6267 2.662 0 6.05 0C7.964 0 9.801 0.882834 11 2.26703C12.199 0.882834 14.036 0 15.95 0C19.338 0 22 2.6267 22 5.99455C22 10.1035 18.26 13.4714 12.595 18.5613L11 20Z" fill="currentColor"/>
</g>
</g>
</g>
<defs>
<clipPath id="clip0_889_24083">
<rect width="390" height="2257" fill="white" transform="translate(-353 -74)"/>
</clipPath>
</defs>
</svg>
