<svg width="22" height="20" viewBox="0 0 22 20" fill="currentColor" xmlns="http://www.w3.org/2000/svg">
<path id="Vector" opacity="0.8" d="M9.73989 18.19L9.73917 18.1894C6.89677 15.6355 4.57792 13.5485 2.96382 11.5919C1.35508 9.64176 0.5 7.88316 0.5 5.99455C0.5 2.90777 2.93319 0.5 6.05 0.5C7.81455 0.5 9.51513 1.31648 10.6221 2.5944L11 3.0307L11.3779 2.5944C12.4849 1.31647 14.1854 0.5 15.95 0.5C19.0668 0.5 21.5 2.90777 21.5 5.99455C21.5 7.88316 20.6449 9.64176 19.0362 11.5919C17.4221 13.5485 15.1032 15.6355 12.2608 18.1894L12.2601 18.19L11 19.3267L9.73989 18.19Z" stroke="#E50B14"/>
</svg>
