<svg width="13" height="13" viewBox="0 0 13 13" fill="none" xmlns="http://www.w3.org/2000/svg">
<path d="M9.13723 3.11475C9.13723 2.68377 8.96603 2.27044 8.66128 1.9657C8.35653 1.66095 7.94321 1.48975 7.51223 1.48975H3.90527C3.4743 1.48975 3.06097 1.66095 2.75622 1.9657C2.45148 2.27044 2.28027 2.68377 2.28027 3.11475V8.30337C2.28027 8.73435 2.45148 9.14767 2.75622 9.45242C3.06097 9.75717 3.4743 9.92837 3.90527 9.92837H7.51169C7.72509 9.92837 7.9364 9.88634 8.13355 9.80468C8.3307 9.72301 8.50984 9.60332 8.66074 9.45242C8.81163 9.30153 8.93133 9.12239 9.01299 8.92523C9.09466 8.72808 9.13669 8.51677 9.13669 8.30337L9.13723 3.11475Z" stroke="#5A6A72" fill="none" stroke-linecap="round" stroke-linejoin="round"/>
<path fill-rule="evenodd" clip-rule="evenodd" d="M4.55722 11.7883C4.21841 11.6513 3.93066 11.4122 3.73389 11.1042H5.87943C6.6253 11.1042 7.16535 11.1042 7.59218 11.0755C8.01522 11.0473 8.29851 10.9926 8.53468 10.8968C8.88852 10.7537 9.20996 10.5409 9.47983 10.2711C9.7497 10.0012 9.96249 9.67977 10.1055 9.32592C10.2014 9.0903 10.2561 8.80647 10.2843 8.38342C10.313 7.95659 10.313 7.41655 10.313 6.67067V2.94238C10.5762 3.11084 10.7907 3.34647 10.9337 3.62705C11.0415 3.8383 11.0854 4.06526 11.1054 4.31605C11.1255 4.55872 11.1255 4.85663 11.1255 5.22172V6.6853C11.1255 7.41384 11.1255 7.97988 11.0951 8.43759C11.0637 8.90126 11.0003 9.28097 10.859 9.63088C10.6751 10.0857 10.4015 10.4989 10.0546 10.8459C9.70769 11.1928 9.29449 11.4663 8.83964 11.6502C8.48972 11.7916 8.11001 11.8555 7.64634 11.8864C7.18918 11.9167 6.6226 11.9167 5.89405 11.9167H5.86535C5.56851 11.9167 5.32585 11.9167 5.1276 11.9037C4.9223 11.8896 4.73597 11.8604 4.55722 11.7883Z" fill="#5A6A72"/>
</svg>
