<svg width="60" height="59" viewBox="0 0 60 59" fill="none" xmlns="http://www.w3.org/2000/svg">
<rect x="0.5" width="59" height="59" rx="29.5" fill="#E9EBEC"/>
<path d="M29.4858 35.6945C29.5907 35.799 29.6739 35.9232 29.7307 36.06C29.7875 36.1967 29.8167 36.3433 29.8167 36.4914C29.8167 36.6394 29.7875 36.7861 29.7307 36.9228C29.6739 37.0595 29.5907 37.1837 29.4858 37.2883L29.0058 37.7683C28.4963 38.2797 27.8904 38.685 27.2233 38.9608C26.5561 39.2366 25.8409 39.3775 25.119 39.3751C24.0318 39.3755 22.9689 39.0534 22.0648 38.4495C21.1608 37.8457 20.4561 36.9872 20.04 35.9828C19.6239 34.9784 19.5151 33.8732 19.7273 32.8069C19.9395 31.7406 20.4632 30.7612 21.2321 29.9926L24.4899 26.7348C25.1828 26.042 26.0484 25.5469 26.9969 25.301C27.9454 25.055 28.9424 25.067 29.8847 25.3357C30.8271 25.6045 31.6804 26.1202 32.3565 26.8295C33.0325 27.5389 33.5067 28.416 33.7299 29.3701C33.7669 29.5152 33.7745 29.6662 33.7524 29.8143C33.7303 29.9623 33.6788 30.1045 33.601 30.2324C33.5232 30.3603 33.4207 30.4714 33.2994 30.5592C33.1782 30.647 33.0406 30.7097 32.8948 30.7436C32.749 30.7776 32.5979 30.7821 32.4503 30.7569C32.3027 30.7317 32.1617 30.6772 32.0354 30.5968C31.9091 30.5164 31.8002 30.4116 31.7149 30.2885C31.6297 30.1655 31.5699 30.0266 31.539 29.8801C31.4065 29.3169 31.126 28.7993 30.7265 28.3808C30.327 27.9623 29.823 27.658 29.2665 27.4996C28.7101 27.3411 28.1214 27.3341 27.5613 27.4794C27.0013 27.6246 26.4902 27.9168 26.0808 28.3258L22.823 31.5836C22.3689 32.0373 22.0596 32.6155 21.9341 33.2451C21.8086 33.8747 21.8726 34.5273 22.1181 35.1205C22.3636 35.7137 22.7794 36.2207 23.3131 36.5776C23.8467 36.9344 24.4742 37.1249 25.1162 37.1251C25.5427 37.1264 25.9653 37.043 26.3594 36.8798C26.7535 36.7167 27.1113 36.4769 27.4121 36.1745L27.8912 35.6945C27.9957 35.5895 28.1199 35.5061 28.2568 35.4493C28.3936 35.3924 28.5403 35.3631 28.6885 35.3631C28.8367 35.3631 28.9834 35.3924 29.1202 35.4493C29.2571 35.5061 29.3813 35.5895 29.4858 35.6945ZM39.7655 22.2348C38.7344 21.204 37.3362 20.625 35.8782 20.625C34.4202 20.625 33.022 21.204 31.9908 22.2348L31.5118 22.7139C31.3004 22.9252 31.1817 23.2119 31.1817 23.5108C31.1817 23.8096 31.3004 24.0963 31.5118 24.3076C31.7231 24.519 32.0098 24.6377 32.3087 24.6377C32.6075 24.6377 32.8942 24.519 33.1055 24.3076L33.5855 23.8276C34.1947 23.2185 35.0209 22.8762 35.8824 22.8762C36.7439 22.8762 37.5701 23.2185 38.1793 23.8276C38.7885 24.4368 39.1307 25.263 39.1307 26.1245C39.1307 26.986 38.7885 27.8122 38.1793 28.4214L34.9158 31.6745C34.615 31.9769 34.2572 32.2167 33.8631 32.3798C33.469 32.543 33.0465 32.6264 32.6199 32.6251C31.8882 32.6246 31.1781 32.3769 30.6048 31.9222C30.0315 31.4675 29.6286 30.8325 29.4615 30.1201C29.3938 29.8295 29.2135 29.5776 28.9602 29.4199C28.7068 29.2622 28.4012 29.2116 28.1105 29.2792C27.8199 29.3468 27.568 29.5271 27.4103 29.7805C27.2526 30.0338 27.202 30.3395 27.2696 30.6301C27.5519 31.8366 28.2334 32.9123 29.2037 33.6828C30.1741 34.4533 31.3762 34.8735 32.6152 34.8751H32.6199C33.3422 34.8771 34.0577 34.7359 34.725 34.4596C35.3923 34.1833 35.9982 33.7774 36.5077 33.2654L39.7655 30.0076C40.276 29.4973 40.6809 28.8914 40.9571 28.2246C41.2334 27.5577 41.3756 26.843 41.3756 26.1212C41.3756 25.3994 41.2334 24.6847 40.9571 24.0179C40.6809 23.351 40.276 22.7451 39.7655 22.2348Z" fill="#29363D"/>
</svg>
