<svg width="21" height="21" viewBox="0 0 21 21" fill="none" xmlns="http://www.w3.org/2000/svg">
<rect x="6.5" y="1.85303" width="8" height="8" rx="4" stroke="currentColor" stroke-width="2"/>
<path fill-rule="evenodd" clip-rule="evenodd" d="M10.4999 11.147C9.20199 11.147 7.91457 11.3741 6.71023 11.8175C5.50586 12.261 4.4045 12.9134 3.47157 13.7427C2.53843 14.5722 1.79106 15.5633 1.27856 16.6631C0.908706 17.4568 0.667254 18.2942 0.56142 19.1495C0.493596 19.6976 0.947614 20.147 1.4999 20.147C2.05218 20.147 2.49172 19.6964 2.58141 19.1514C2.67381 18.5899 2.84442 18.0379 3.0914 17.5079C3.48349 16.6665 4.06199 15.8938 4.8003 15.2375C5.53884 14.5811 6.42177 14.055 7.40126 13.6944C8.38079 13.3337 9.43401 13.147 10.4999 13.147C11.5658 13.147 12.619 13.3337 13.5985 13.6943C14.578 14.055 15.461 14.5811 16.1995 15.2375C16.9378 15.8938 17.5163 16.6665 17.9084 17.5079C18.1554 18.0379 18.326 18.5899 18.4184 19.1514C18.5081 19.6964 18.9476 20.147 19.4999 20.147C20.0522 20.147 20.5062 19.6976 20.4384 19.1495C20.3325 18.2942 20.0911 17.4568 19.7212 16.6631C19.3781 15.9267 18.9296 15.2391 18.3906 14.616C17.3059 13.9337 16.5276 14.7205 16.5276 14.7205C17.1448 13.8474 16.5542 13.0599 16.3971 12.8769C15.7447 12.4484 15.037 12.0927 14.2896 11.8175C13.0852 11.3741 11.7978 11.147 10.4999 11.147Z" fill="currentColor"/>
</svg>
