<svg width="11" height="12" viewBox="0 0 11 12" fill="none" xmlns="http://www.w3.org/2000/svg">
<path d="M1.22222 12C0.886111 12 0.59838 11.8825 0.359028 11.6475C0.119676 11.4125 0 11.13 0 10.8V2.4C0 2.07 0.119676 1.7875 0.359028 1.5525C0.59838 1.3175 0.886111 1.2 1.22222 1.2H1.83333V0H3.05556V1.2H7.94444V0H9.16667V1.2H9.77778C10.1139 1.2 10.4016 1.3175 10.641 1.5525C10.8803 1.7875 11 2.07 11 2.4V10.8C11 11.13 10.8803 11.4125 10.641 11.6475C10.4016 11.8825 10.1139 12 9.77778 12H1.22222ZM1.22222 10.8H9.77778V4.8H1.22222V10.8ZM1.22222 3.6H9.77778V2.4H1.22222V3.6ZM5.5 7.2C5.32685 7.2 5.18171 7.1425 5.06458 7.0275C4.94745 6.9125 4.88889 6.77 4.88889 6.6C4.88889 6.43 4.94745 6.2875 5.06458 6.1725C5.18171 6.0575 5.32685 6 5.5 6C5.67315 6 5.81829 6.0575 5.93542 6.1725C6.05255 6.2875 6.11111 6.43 6.11111 6.6C6.11111 6.77 6.05255 6.9125 5.93542 7.0275C5.81829 7.1425 5.67315 7.2 5.5 7.2ZM3.05556 7.2C2.88241 7.2 2.73727 7.1425 2.62014 7.0275C2.50301 6.9125 2.44444 6.77 2.44444 6.6C2.44444 6.43 2.50301 6.2875 2.62014 6.1725C2.73727 6.0575 2.88241 6 3.05556 6C3.2287 6 3.37384 6.0575 3.49097 6.1725C3.6081 6.2875 3.66667 6.43 3.66667 6.6C3.66667 6.77 3.6081 6.9125 3.49097 7.0275C3.37384 7.1425 3.2287 7.2 3.05556 7.2ZM7.94444 7.2C7.7713 7.2 7.62616 7.1425 7.50903 7.0275C7.3919 6.9125 7.33333 6.77 7.33333 6.6C7.33333 6.43 7.3919 6.2875 7.50903 6.1725C7.62616 6.0575 7.7713 6 7.94444 6C8.11759 6 8.26273 6.0575 8.37986 6.1725C8.49699 6.2875 8.55556 6.43 8.55556 6.6C8.55556 6.77 8.49699 6.9125 8.37986 7.0275C8.26273 7.1425 8.11759 7.2 7.94444 7.2ZM5.5 9.6C5.32685 9.6 5.18171 9.5425 5.06458 9.4275C4.94745 9.3125 4.88889 9.17 4.88889 9C4.88889 8.83 4.94745 8.6875 5.06458 8.5725C5.18171 8.4575 5.32685 8.4 5.5 8.4C5.67315 8.4 5.81829 8.4575 5.93542 8.5725C6.05255 8.6875 6.11111 8.83 6.11111 9C6.11111 9.17 6.05255 9.3125 5.93542 9.4275C5.81829 9.5425 5.67315 9.6 5.5 9.6ZM3.05556 9.6C2.88241 9.6 2.73727 9.5425 2.62014 9.4275C2.50301 9.3125 2.44444 9.17 2.44444 9C2.44444 8.83 2.50301 8.6875 2.62014 8.5725C2.73727 8.4575 2.88241 8.4 3.05556 8.4C3.2287 8.4 3.37384 8.4575 3.49097 8.5725C3.6081 8.6875 3.66667 8.83 3.66667 9C3.66667 9.17 3.6081 9.3125 3.49097 9.4275C3.37384 9.5425 3.2287 9.6 3.05556 9.6ZM7.94444 9.6C7.7713 9.6 7.62616 9.5425 7.50903 9.4275C7.3919 9.3125 7.33333 9.17 7.33333 9C7.33333 8.83 7.3919 8.6875 7.50903 8.5725C7.62616 8.4575 7.7713 8.4 7.94444 8.4C8.11759 8.4 8.26273 8.4575 8.37986 8.5725C8.49699 8.6875 8.55556 8.83 8.55556 9C8.55556 9.17 8.49699 9.3125 8.37986 9.4275C8.26273 9.5425 8.11759 9.6 7.94444 9.6Z" fill="#788991"/>
</svg>
