<svg width="10" height="10" viewBox="0 0 10 10" fill="none" xmlns="http://www.w3.org/2000/svg">
<path d="M5.00016 0.833496C7.30141 0.833496 9.16683 2.69891 9.16683 5.00016C9.16683 7.30141 7.30141 9.16683 5.00016 9.16683C2.69891 9.16683 0.833496 7.30141 0.833496 5.00016C0.833496 2.69891 2.69891 0.833496 5.00016 0.833496ZM5.00016 1.66683C4.11611 1.66683 3.26826 2.01802 2.64314 2.64314C2.01802 3.26826 1.66683 4.11611 1.66683 5.00016C1.66683 5.88422 2.01802 6.73206 2.64314 7.35719C3.26826 7.98231 4.11611 8.3335 5.00016 8.3335C5.88422 8.3335 6.73206 7.98231 7.35719 7.35719C7.98231 6.73206 8.3335 5.88422 8.3335 5.00016C8.3335 4.11611 7.98231 3.26826 7.35719 2.64314C6.73206 2.01802 5.88422 1.66683 5.00016 1.66683ZM5.00016 6.25016C5.11067 6.25016 5.21665 6.29406 5.29479 6.3722C5.37293 6.45034 5.41683 6.55632 5.41683 6.66683C5.41683 6.77734 5.37293 6.88332 5.29479 6.96146C5.21665 7.0396 5.11067 7.0835 5.00016 7.0835C4.88966 7.0835 4.78368 7.0396 4.70553 6.96146C4.62739 6.88332 4.5835 6.77734 4.5835 6.66683C4.5835 6.55632 4.62739 6.45034 4.70553 6.3722C4.78368 6.29406 4.88966 6.25016 5.00016 6.25016ZM5.00016 2.50016C5.11067 2.50016 5.21665 2.54406 5.29479 2.6222C5.37293 2.70034 5.41683 2.80632 5.41683 2.91683V5.41683C5.41683 5.52734 5.37293 5.63332 5.29479 5.71146C5.21665 5.7896 5.11067 5.8335 5.00016 5.8335C4.88966 5.8335 4.78368 5.7896 4.70553 5.71146C4.62739 5.63332 4.5835 5.52734 4.5835 5.41683V2.91683C4.5835 2.80632 4.62739 2.70034 4.70553 2.6222C4.78368 2.54406 4.88966 2.50016 5.00016 2.50016Z" fill="#F6464E"/>
</svg>
