<svg width="13" height="13" viewBox="0 0 13 13" fill="none" xmlns="http://www.w3.org/2000/svg">
<g clip-path="url(#clip0_2695_263)">
<g filter="url(#filter0_d_2695_263)">
<circle cx="6.5" cy="6.5" r="6.5" fill="#202020"/>
<circle cx="6.5" cy="6.5" r="6" stroke="#202020"/>
</g>
<path d="M6.48092 8.86362C6.63256 8.86362 6.77799 8.92588 6.88521 9.0367C6.99243 9.14751 7.05267 9.29781 7.05267 9.45453C7.05267 9.61125 6.99243 9.76155 6.88521 9.87237C6.77799 9.98319 6.63256 10.0454 6.48092 10.0454C6.32929 10.0454 6.18386 9.98319 6.07664 9.87237C5.96942 9.76155 5.90918 9.61125 5.90918 9.45453C5.90918 9.29781 5.96942 9.14751 6.07664 9.0367C6.18386 8.92588 6.32929 8.86362 6.48092 8.86362ZM6.48092 3.54544C6.63256 3.54544 6.77799 3.6077 6.88521 3.71851C6.99243 3.82933 7.05267 3.97963 7.05267 4.13635V7.6818C7.05267 7.83852 6.99243 7.98882 6.88521 8.09964C6.77799 8.21046 6.63256 8.27271 6.48092 8.27271C6.32929 8.27271 6.18386 8.21046 6.07664 8.09964C5.96942 7.98882 5.90918 7.83852 5.90918 7.6818V4.13635C5.90918 3.97963 5.96942 3.82933 6.07664 3.71851C6.18386 3.6077 6.32929 3.54544 6.48092 3.54544Z" fill="white"/>
</g>
<defs>
<filter id="filter0_d_2695_263" x="-10" y="-10" width="33" height="33" filterUnits="userSpaceOnUse" color-interpolation-filters="sRGB">
<feFlood flood-opacity="0" result="BackgroundImageFix"/>
<feColorMatrix in="SourceAlpha" type="matrix" values="0 0 0 0 0 0 0 0 0 0 0 0 0 0 0 0 0 0 127 0" result="hardAlpha"/>
<feOffset/>
<feGaussianBlur stdDeviation="5"/>
<feComposite in2="hardAlpha" operator="out"/>
<feColorMatrix type="matrix" values="0 0 0 0 0.12549 0 0 0 0 0.12549 0 0 0 0 0.12549 0 0 0 0.25 0"/>
<feBlend mode="normal" in2="BackgroundImageFix" result="effect1_dropShadow_2695_263"/>
<feBlend mode="normal" in="SourceGraphic" in2="effect1_dropShadow_2695_263" result="shape"/>
</filter>
<clipPath id="clip0_2695_263">
<rect width="13" height="13" fill="white"/>
</clipPath>
</defs>
</svg>
