<svg width="9" height="9" viewBox="0 0 9 9" fill="none" xmlns="http://www.w3.org/2000/svg">
<path d="M4.76807 6.64014L4.76811 6.64009L7.26811 3.64009L7.5882 3.25598L7.20409 2.93589L6.43609 2.29589L6.05202 1.97583L5.73192 2.35987L3.93252 4.51874L3.20713 3.79303L2.85358 3.43931L2.49995 3.79295L1.79295 4.49995L1.43939 4.8535L1.79295 5.20705L3.29295 6.70705L3.67995 7.09405L4.06705 7.48116L4.41757 7.06064L4.76807 6.64014ZM6.03073 8.19552C5.54543 8.39654 5.02529 8.5 4.5 8.5C3.43913 8.5 2.42172 8.07857 1.67157 7.32843C0.921427 6.57828 0.5 5.56087 0.5 4.5C0.5 3.43913 0.921427 2.42172 1.67157 1.67157C2.42172 0.921427 3.43913 0.5 4.5 0.5C5.02529 0.5 5.54543 0.603463 6.03073 0.804482C6.51604 1.0055 6.95699 1.30014 7.32843 1.67157C7.69986 2.04301 7.9945 2.48396 8.19552 2.96927C8.39654 3.45457 8.5 3.97471 8.5 4.5C8.5 5.02529 8.39654 5.54543 8.19552 6.03073C7.9945 6.51604 7.69986 6.95699 7.32843 7.32843C6.95699 7.69986 6.51604 7.9945 6.03073 8.19552Z" fill="#FCC0C2" stroke="#FCC0C2"/>
</svg>
