<svg width="17" height="19" viewBox="0 0 17 19" fill="currentColor" xmlns="http://www.w3.org/2000/svg">
<path fill-rule="evenodd" clip-rule="evenodd" d="M8.5 0.5C8.05986 0.5 7.64139 0.655231 7.30681 0.927136L0.744315 6.26047C0.505143 6.45484 0.317695 6.7013 0.190976 6.97592C0.0643331 7.25038 0 7.54909 0 7.84921V16.4841C0 16.994 0.186183 17.4976 0.539702 17.8806C0.895713 18.2664 1.39656 18.5 1.9375 18.5H5.6875C6.22844 18.5 6.72929 18.2664 7.0853 17.8806C7.43882 17.4976 7.625 16.994 7.625 16.4841V13.4365C7.625 13.4308 7.62548 13.4255 7.62627 13.4206H9.37373C9.37452 13.4255 9.375 13.4308 9.375 13.4365V16.4841C9.375 16.994 9.56118 17.4976 9.9147 17.8806C10.2707 18.2664 10.7716 18.5 11.3125 18.5H15.0625C15.6034 18.5 16.1043 18.2664 16.4603 17.8806C16.8138 17.4976 17 16.994 17 16.4841V15.5C16.7012 13.6146 15 13.5143 15 13.5143C16.8585 13.3281 17 11.5 17 11.5V7.84921C17 7.54909 16.9357 7.25038 16.809 6.97592C16.6823 6.7013 16.4949 6.45485 16.2557 6.26047L9.69319 0.927136C9.35861 0.655231 8.94014 0.5 8.5 0.5ZM15 13.5143V7.84921C15 7.8339 14.9966 7.82153 14.993 7.81387C14.9921 7.81196 14.9914 7.81061 14.9909 7.80974L8.5 2.53463L2.00914 7.80974C2.00861 7.81061 2.00785 7.81196 2.00697 7.81387C2.00344 7.82153 2 7.8339 2 7.84921V16.4841C2 16.4898 2.00048 16.4952 2.00127 16.5H5.62373C5.62452 16.4952 5.625 16.4898 5.625 16.4841V13.4365C5.625 12.9266 5.81118 12.4231 6.1647 12.04C6.52071 11.6542 7.02155 11.4206 7.5625 11.4206H9.4375C9.97845 11.4206 10.4793 11.6542 10.8353 12.04C11.1888 12.4231 11.375 12.9266 11.375 13.4365V16.4841C11.375 16.4898 11.3755 16.4952 11.3763 16.5H14.9987C14.9995 16.4952 15 16.4898 15 16.4841V13.5143Z"/>
</svg>
