<svg width="16" height="15" viewBox="0 0 16 15" fill="none" xmlns="http://www.w3.org/2000/svg">
<rect y="0.897461" width="16" height="1.6" rx="0.8" fill="currentColor"/>
<rect y="6.49756" width="16" height="1.6" rx="0.8" fill="currentColor"/>
<path fill-rule="evenodd" clip-rule="evenodd" d="M12.0885 12.0974C12.0596 12.1002 12.0301 12.1026 12 12.1046C12 12.1046 13.2759 12.1547 13.5 13.0974C13.7241 12.1547 15 12.1046 15 12.1046C14.9701 12.1026 14.9407 12.1002 14.912 12.0974H15C15.5523 12.0974 16 12.5451 16 13.0974C16 13.6497 15.5523 14.0974 15 14.0974H1C0.447715 14.0974 0 13.6497 0 13.0974C0 12.5451 0.447715 12.0974 1 12.0974H12.0885Z" fill="currentColor"/>
</svg>
