<svg width="21" height="23" viewBox="0 0 21 23" fill="currentColor" xmlns="http://www.w3.org/2000/svg">
<path d="M19.0307 11.4691C19.0755 11.3852 19.0726 11.3417 19.0716 11.3309C19.0702 11.3172 19.0645 11.2914 19.0343 11.2536C18.9673 11.1695 18.788 11.0497 18.5008 11.0495L10.393 11.0433H10.3929L2.50063 11.0384C2.21446 11.0382 2.0241 11.157 1.9438 11.2548C1.90652 11.3002 1.89414 11.3374 1.8905 11.3645C1.88727 11.3885 1.88575 11.4405 1.92691 11.5283C2.0662 11.8254 2.21587 12.1081 2.37641 12.4114C2.45161 12.5534 2.52919 12.6999 2.6092 12.8545C2.8451 13.3104 3.092 13.8193 3.25068 14.3434C3.66195 15.7016 4.26024 16.9201 5.00144 17.9341C5.74261 18.948 6.60616 19.7298 7.53149 20.2541C8.4545 20.7771 9.42584 21.0371 10.3937 21.0371C11.3615 21.0371 12.3328 20.7771 13.2558 20.2541C14.1811 19.7298 15.0447 18.948 15.7859 17.9341C16.5271 16.9201 17.1253 15.7016 17.5366 14.3434C17.7035 13.7923 17.985 13.2661 18.2518 12.8055C18.3594 12.6197 18.4615 12.4493 18.5596 12.2856C18.7261 12.0077 18.8809 11.7494 19.0307 11.4691Z" stroke="currentColor" stroke-width="2" fill="none"/>
<path d="M6.66016 4.9707C6.66016 4.9707 6.44784 7.71282 3.66016 7.99219C3.66016 7.99219 6.21192 8.14262 6.66016 10.9707C7.10839 8.14262 9.66016 7.99219 9.66016 7.99219C6.87248 7.71068 6.66016 4.9707 6.66016 4.9707Z"/>
<path d="M13.6602 0.963135C13.6602 0.963135 13.3771 4.6193 9.66016 4.99179C9.66016 4.99179 13.0625 5.19236 13.6602 8.96313C14.2578 5.19236 17.6602 4.99179 17.6602 4.99179C13.9432 4.61643 13.6602 0.963135 13.6602 0.963135Z"/>
</svg>
