<svg width="13" height="13" viewBox="0 0 13 13" fill="none" xmlns="http://www.w3.org/2000/svg">
<circle cx="6.5" cy="6.5" r="6.5" fill="white"/>
<path fill-rule="evenodd" clip-rule="evenodd" d="M6.5 13C7.35359 13 8.19883 12.8319 8.98744 12.5052C9.77606 12.1786 10.4926 11.6998 11.0962 11.0962C11.6998 10.4926 12.1786 9.77606 12.5052 8.98744C12.8319 8.19883 13 7.35359 13 6.5C13 5.64641 12.8319 4.80117 12.5052 4.01256C12.1786 3.22394 11.6998 2.50739 11.0962 1.90381C10.4926 1.30023 9.77606 0.821439 8.98744 0.494783C8.19883 0.168127 7.35359 -1.27195e-08 6.5 0C4.77609 2.56882e-08 3.12279 0.684819 1.90381 1.90381C0.68482 3.12279 0 4.77609 0 6.5C0 8.22391 0.68482 9.87721 1.90381 11.0962C3.12279 12.3152 4.77609 13 6.5 13ZM6.33244 9.12889L9.94355 4.79556L8.83422 3.87111L5.72867 7.59706L4.12172 5.98939L3.1005 7.01061L5.26717 9.17728L5.82617 9.73628L6.33244 9.12889Z" fill="#00B500"/>
</svg>
