<svg width="17" height="19" viewBox="0 0 17 19" fill="currentColor" xmlns="http://www.w3.org/2000/svg">
<path fill-rule="evenodd" clip-rule="evenodd" d="M0.791291 14.1365C0.496186 15.2 1.38081 16.1057 2.48439 16.1069L6.63838 16.1118C6.54073 16.3477 6.48682 16.606 6.48682 16.877C6.48682 17.9814 7.38225 18.877 8.48682 18.877C9.5914 18.877 10.4868 17.9814 10.4868 16.877C10.4868 16.6077 10.4336 16.3506 10.337 16.1162L14.4848 16.1208C15.5902 16.1221 16.4804 15.218 16.2207 14.1436C16.0708 13.5237 15.8756 12.9089 15.683 12.3025L15.6824 12.3003C15.433 11.5149 15.1881 10.7439 15.052 9.99512C14.9557 9.46484 14.8472 8.948 14.7269 8.44629C13.8591 6.82837 12.3441 7.22754 12.3441 7.22754C13.7807 6.5769 13.5796 5.09229 13.5195 4.7793C12.8707 3.30737 12.1018 2.13916 11.2561 1.34033C10.4052 0.536621 9.49309 0.123047 8.57201 0.123047C7.65093 0.123047 6.73885 0.536621 5.88788 1.34033C5.03691 2.14404 4.2637 3.32202 3.6124 4.80688C2.96109 6.29199 2.44444 8.05469 2.09197 9.99512C1.94985 10.7773 1.66139 11.5806 1.36771 12.3984C1.16196 12.9714 0.953645 13.5515 0.791291 14.1365ZM3.38336 12.7017C3.63025 12.0068 3.90721 11.1921 4.05975 10.3525C4.39012 8.53394 4.86704 6.92554 5.44397 5.61035C6.02635 4.28247 6.66458 3.35767 7.26109 2.79443C7.84549 2.24243 8.28935 2.12305 8.57201 2.12305C8.85465 2.12305 9.29852 2.24243 9.88292 2.79443C10.4794 3.35767 11.1177 4.28247 11.7 5.61035C12.277 6.92554 12.7539 8.53394 13.0843 10.3525C13.2301 11.155 13.4726 11.9456 13.6907 12.6362L13.7775 12.9099C13.9137 13.3394 14.0391 13.7344 14.1474 14.1206L2.88979 14.1077C2.99448 13.7871 3.11221 13.4587 3.2402 13.1023L3.24139 13.0986C3.28745 12.9705 3.33481 12.8384 3.38336 12.7017Z" />
</svg>
