<svg width="94" height="22" viewBox="0 0 94 22" fill="none" xmlns="http://www.w3.org/2000/svg">
<path d="M53.5151 1.74054C53.6327 1.14711 53.2473 0.570611 52.6541 0.452893C52.0609 0.335176 51.4847 0.720817 51.367 1.31425L50.831 4.01784C50.7133 4.61127 51.0988 5.18777 51.6919 5.30549C52.2851 5.4232 52.8613 5.03756 52.979 4.44413L53.5151 1.74054Z" fill="currentColor"/>
<path d="M47.6316 1.42479C47.2954 0.921929 46.6154 0.786972 46.1127 1.12335C45.6101 1.45973 45.4752 2.14007 45.8114 2.64293L47.3432 4.93388C47.6795 5.43674 48.3595 5.5717 48.8621 5.23532C49.3648 4.89894 49.4997 4.2186 49.1634 3.71574L47.6316 1.42479Z" fill="currentColor"/>
<path d="M43.7916 5.3919C43.1985 5.27418 42.6222 5.65982 42.5046 6.25325C42.3869 6.84669 42.7724 7.42319 43.3655 7.54091L46.0679 8.07721C46.6611 8.19493 47.2373 7.80929 47.355 7.21585C47.4726 6.62242 47.0872 6.04592 46.494 5.92821L43.7916 5.3919Z" fill="currentColor"/>
<path d="M8.15911 20.6505L5.51005 16.3394H3.07291V20.6505H0V6.93982H5.51005C6.64032 6.93982 7.6293 7.1165 8.477 7.50521C9.3247 7.89391 9.92515 8.42396 10.3843 9.1307C10.8082 9.83743 11.0554 10.6502 11.0554 11.6043C11.0554 12.5584 10.8435 13.3711 10.4196 14.0778C9.9958 14.7846 9.36002 15.3146 8.54764 15.7033L11.7265 20.6151H8.19443L8.15911 20.6505ZM3.07291 13.6185H5.40409C6.21647 13.6185 6.85224 13.4418 7.31141 13.1238C7.77058 12.7704 7.98251 12.2757 7.98251 11.6396C7.98251 11.0035 7.77058 10.5088 7.31141 10.1555C6.85224 9.8021 6.21647 9.66075 5.40409 9.66075H3.07291V13.6185Z" fill="currentColor"/>
<path d="M14.729 20.2275C13.9519 19.7681 13.3515 19.1674 12.8923 18.39C12.4331 17.6126 12.2212 16.7292 12.2212 15.7397C12.2212 14.7503 12.4331 13.8669 12.8923 13.0895C13.3161 12.3121 13.9519 11.676 14.729 11.252C15.506 10.7926 16.3891 10.5806 17.378 10.5806C18.367 10.5806 19.25 10.7926 20.0271 11.252C20.8042 11.676 21.4046 12.3121 21.8638 13.0895C22.2876 13.8669 22.5349 14.7503 22.5349 15.7397C22.5349 16.0578 22.5349 16.3758 22.4642 16.6938H15.2588C15.3647 17.2592 15.612 17.7186 16.0005 18.0366C16.3891 18.3547 16.8482 18.496 17.4134 18.496C17.8372 18.496 18.2257 18.4253 18.5436 18.284C18.8615 18.1426 19.1088 17.966 19.2147 17.7186H22.217C22.0404 18.3547 21.7225 18.8847 21.2633 19.3794C20.8042 19.8741 20.239 20.2275 19.5679 20.5102C18.8968 20.7929 18.1551 20.8989 17.378 20.8989C16.3891 20.8989 15.506 20.6869 14.729 20.2275ZM19.5679 14.7503C19.4266 14.1496 19.1794 13.6902 18.8262 13.4075C18.4377 13.0895 17.9785 12.9481 17.378 12.9481C16.7776 12.9481 16.3184 13.0895 15.9652 13.4075C15.612 13.7255 15.3647 14.1496 15.2235 14.7503H19.6032H19.5679Z" fill="currentColor"/>
<path d="M33.4838 10.7926L29.7045 20.6516H26.5962L22.8169 10.7926H26.0664L28.2563 17.2239L30.4462 10.7926H33.4838Z" fill="currentColor"/>
<path d="M36.45 20.3335C35.8495 19.9802 35.4257 19.4854 35.1078 18.814C34.7899 18.1426 34.6133 17.3652 34.6133 16.4818V10.7926H37.6156V15.9871C37.6156 16.7292 37.7568 17.3299 38.0747 17.7186C38.3573 18.1073 38.8165 18.3193 39.3463 18.3193C39.8761 18.3193 40.4059 18.1073 40.7238 17.6479C41.0417 17.1886 41.2183 16.6232 41.2183 15.8458V10.7926H44.2205V20.6516H41.2183V19.6621C40.6178 20.4749 39.6995 20.8989 38.4633 20.8989C37.6862 20.8989 37.0151 20.7222 36.45 20.3689V20.3335Z" fill="currentColor"/>
<path d="M49.5191 20.0504C48.3888 19.4143 47.5411 18.5663 46.9053 17.4708C46.2695 16.3754 45.9517 15.1386 45.9517 13.7958C45.9517 12.453 46.2695 11.2162 46.9053 10.1208C47.5411 9.02534 48.4241 8.17725 49.5191 7.54119C50.6493 6.90513 51.8856 6.62244 53.2631 6.62244C54.4993 6.62244 55.5942 6.83446 56.5479 7.29384C57.5016 7.75321 58.314 8.35394 58.9144 9.13135C59.5149 9.90876 59.9034 10.7922 60.1153 11.7816H57.0424C56.8658 11.1102 56.4419 10.5448 55.8062 10.0854C55.1351 9.62606 54.3227 9.41404 53.369 9.41404C52.5567 9.41404 51.8149 9.59072 51.1438 9.97943C50.4727 10.3681 49.9782 10.8628 49.5897 11.5342C49.2012 12.2056 49.0246 12.9477 49.0246 13.7958C49.0246 14.6439 49.2012 15.386 49.5897 16.0574C49.9782 16.7288 50.4727 17.2588 51.1438 17.6475C51.8149 18.0362 52.5567 18.2129 53.369 18.2129C54.0048 18.2129 54.5699 18.0715 55.1351 17.8595C55.7002 17.6122 56.1594 17.2941 56.5126 16.9054C56.8658 16.5167 57.113 16.128 57.1837 15.704H60.2919C60.1506 16.6227 59.7621 17.5062 59.1263 18.3189C58.4906 19.1317 57.6782 19.8031 56.6539 20.2978C55.6296 20.7925 54.5346 21.0398 53.2984 21.0398C51.9209 21.0398 50.6493 20.7218 49.5544 20.1211L49.5191 20.0504Z" fill="currentColor"/>
<path d="M64.8841 20.6518H61.8818V6.51709H64.8841V20.6165V20.6518Z" fill="currentColor"/>
<path d="M69.9355 6.55178C70.2888 6.90515 70.4654 7.32919 70.4654 7.85924C70.4654 8.38929 70.2888 8.81333 69.9355 9.1667C69.5823 9.52007 69.1585 9.69675 68.6287 9.69675C68.0989 9.69675 67.675 9.52007 67.3218 9.1667C66.9686 8.81333 66.792 8.38929 66.792 7.85924C66.792 7.32919 66.9686 6.90515 67.3218 6.55178C67.675 6.19841 68.0989 6.02173 68.6287 6.02173C69.1585 6.02173 69.5823 6.19841 69.9355 6.55178ZM70.1475 20.6865H67.1452V10.7922H70.1475V20.6865Z" fill="currentColor"/>
<path d="M80.2843 19.8376C79.4013 20.509 78.3416 20.8624 77.1054 20.8624C76.1164 20.8624 75.1981 20.6504 74.421 20.191C73.644 19.7316 73.0082 19.1309 72.549 18.3535C72.0899 17.5761 71.8779 16.6927 71.8779 15.7032C71.8779 14.7138 72.0899 13.8304 72.549 13.053C73.0082 12.2756 73.6086 11.6395 74.421 11.2155C75.1981 10.7561 76.1164 10.5441 77.1054 10.5441C77.9531 10.5441 78.6948 10.7208 79.4013 11.0388C80.1077 11.3568 80.6728 11.8162 81.0967 12.3816C81.5558 12.947 81.8384 13.583 81.9444 14.2898H78.9068C78.7655 13.9364 78.5536 13.6537 78.2357 13.4417C77.9178 13.2297 77.5293 13.1237 77.0701 13.1237C76.3637 13.1237 75.8339 13.371 75.41 13.8304C74.9862 14.2898 74.7742 14.9258 74.7742 15.6679C74.7742 16.41 74.9862 17.046 75.41 17.5054C75.8339 17.9648 76.399 18.2121 77.0701 18.2121C77.5293 18.2121 77.9178 18.1061 78.2357 17.8941C78.5536 17.6821 78.8008 17.3994 78.9421 17.046H81.9797C81.7324 18.1768 81.1673 19.0956 80.2843 19.8023V19.8376Z" fill="currentColor"/>
<path d="M87.8072 17.0472L86.6063 18.39V20.6516H83.604V6.51685H86.6063V14.7857L90.0677 10.7573H93.3879L89.6085 14.9623L93.5998 20.6162H90.1737L87.7719 17.0119L87.8072 17.0472Z" fill="currentColor"/>
</svg>
