<svg width="35" height="36" viewBox="0 0 35 36" fill="none" xmlns="http://www.w3.org/2000/svg">
<g clip-path="url(#clip0_889_24115)">
<path d="M28.7448 0H6.25519C2.80054 0 0 2.88056 0 6.43391V29.5661C0 33.1194 2.80054 36 6.25519 36H28.7448C32.1995 36 35 33.1194 35 29.5661V6.43391C35 2.88056 32.1995 0 28.7448 0Z" fill="currentColor"/>
<path d="M9.37615 9.34738C8.70818 8.3731 10.1134 8.64654 10.7344 8.60748C12.5127 8.60748 16.0536 8.60748 16.3373 8.60748C18.8751 8.55693 21.4442 9.68746 22.4249 12.1898C23.466 14.7702 22.7377 18.2583 20.3227 19.6968C18.3948 20.9767 15.676 20.887 15.2046 20.887C14.941 20.887 13.1561 20.8664 13.1561 20.8664C13.1561 20.8664 13.2119 28.0632 13.1226 28.4653C13.0533 28.5962 12.8947 28.6698 12.7674 28.6514C12.0435 28.6514 10.8908 28.6514 10.1737 28.6514C9.79837 28.6353 9.08573 28.7801 9.27338 28.2171C9.53476 27.3922 9.33147 14.2096 9.40296 9.39793L9.37615 9.34738ZM13.1561 18.4215C13.1561 18.4215 14.5166 18.4468 14.9678 18.4445C16.0737 18.4399 17.7961 18.1411 18.6919 16.9968C19.6347 15.7905 19.5364 14.1406 18.5489 13.0859C17.5794 12.1599 16.3328 12.1094 14.9678 12.0772C14.2463 12.0588 13.5895 12.0772 13.1695 12.0772L13.1538 18.4215H13.1561Z" fill="white"/>
<path d="M24.6076 28.6492C24.2948 28.6331 21.5091 28.6607 20.745 28.6492C20.5417 28.6492 20.4635 28.6722 20.3384 28.5067C18.5177 24.0857 15.58 21.3972 15.7878 21.4432C18.8484 21.3237 20.5909 21.565 22.32 24.5705C22.9723 25.5517 23.6336 27.5049 24.6612 27.822C25.1907 27.9851 25.1706 28.5619 24.6434 28.6469L24.6098 28.6515L24.6076 28.6492Z" fill="white"/>
<path d="M25.4965 4.96094C25.4965 4.96094 25.2552 7.89296 22.0874 8.19168C22.0874 8.19168 24.9871 8.35252 25.4965 11.3765C26.0058 8.35252 28.9056 8.19168 28.9056 8.19168C25.7377 7.89066 25.4965 4.96094 25.4965 4.96094Z" fill="white"/>
</g>
<defs>
<clipPath id="clip0_889_24115">
<rect width="35" height="36" fill="white"/>
</clipPath>
</defs>
</svg>
